inDegrees=no
num_controls=7
num_derivatives=13
num_iterations=93
num_multipliers=7
num_parameters=0
num_slacks=7
num_states=26
objective=0.396898
objective_accelerations=0.037986
objective_balance=0.005008
objective_effort=0.063848
objective_height=0.285108
objective_ligament=0.004948
solver_duration=1106.531911
status=Solve_Succeeded
success=true
DataType=double
version=3
OpenSimVersion=4.5
endheader
time	/jointset/ground_pelvis/pelvis_tilt/value	/jointset/ground_pelvis/pelvis_tx/value	/jointset/ground_pelvis/pelvis_ty/value	/jointset/hip_r/hip_flexion_r/value	/jointset/hip_r/hip_adduction_r/value	/jointset/hip_r/hip_rotation_r/value	/jointset/back/lumbar_extension/value	/jointset/patellofemoral_r/patellar_flexion_r/value	/jointset/knee_r/knee_flexion_r/value	/jointset/knee_r/knee_adduction_r/value	/jointset/knee_r/knee_rotation_r/value	/jointset/ankle_r/ankle_angle_r/value	/jointset/subtalar_r/subtalar_angle_r/value	/jointset/ground_pelvis/pelvis_tilt/speed	/jointset/ground_pelvis/pelvis_tx/speed	/jointset/ground_pelvis/pelvis_ty/speed	/jointset/hip_r/hip_flexion_r/speed	/jointset/hip_r/hip_adduction_r/speed	/jointset/hip_r/hip_rotation_r/speed	/jointset/back/lumbar_extension/speed	/jointset/patellofemoral_r/patellar_flexion_r/speed	/jointset/knee_r/knee_flexion_r/speed	/jointset/knee_r/knee_adduction_r/speed	/jointset/knee_r/knee_rotation_r/speed	/jointset/ankle_r/ankle_angle_r/speed	/jointset/subtalar_r/subtalar_angle_r/speed	/forceset/tau_hip_flexion_r	/forceset/tau_hip_adduction_r	/forceset/tau_hip_rotation_r	/forceset/tau_knee_flexion_r	/forceset/tau_ankle_angle_r	/forceset/tau_subtalar_angle_r	/forceset/tau_lumbar_extension	lambda_cid13_p0	lambda_cid14_p0	lambda_cid14_p1	lambda_cid14_p2	lambda_cid14_p3	lambda_cid14_p4	lambda_cid14_p5	/jointset/ground_pelvis/pelvis_tilt/accel	/jointset/ground_pelvis/pelvis_tx/accel	/jointset/ground_pelvis/pelvis_ty/accel	/jointset/hip_r/hip_flexion_r/accel	/jointset/hip_r/hip_adduction_r/accel	/jointset/hip_r/hip_rotation_r/accel	/jointset/back/lumbar_extension/accel	/jointset/patellofemoral_r/patellar_flexion_r/accel	/jointset/knee_r/knee_flexion_r/accel	/jointset/knee_r/knee_adduction_r/accel	/jointset/knee_r/knee_rotation_r/accel	/jointset/ankle_r/ankle_angle_r/accel	/jointset/subtalar_r/subtalar_angle_r/accel	gamma_cid13_p0	gamma_cid14_p0	gamma_cid14_p1	gamma_cid14_p2	gamma_cid14_p3	gamma_cid14_p4	gamma_cid14_p5
1.5	-0.2441469491723571	-0.03796870106363857	0.599045527171605	1.599168610010226	-0.2336176788824882	-0.05225160642344399	-0.4086284240908804	1.564117880860627	1.564117880860628	-0.1228829321797776	0.1727892079997723	0.4166233496901686	0.1003765974878456	0.2987580713063288	0.07220123989889259	1.132976727894402	-3.125933062259414	0.0743694100216826	-0.3079431577372505	0.3646768775333959	-3.112413036292329	-3.112413036291984	0.4170122854611565	0.01414700625132119	-0.3717580292266907	-0.0103129091501883	-0.2745172500459143	-0.01985533052459619	0.003631711703022845	-0.5720723450963511	0.1132900959791146	0.006805658666443361	0.3099040402681667	-0.04455045978232341	-12.84671511812215	0.07118660093459632	1.174106561844085	-1.795727587851081	-803.3878145250023	77.18692017561699	2.779541048559441	1.480317259274673	1.523074965247105	-6.297709045867595	0.1640889824653262	-0.001962136396964095	3.11422020753995	-7.091001363121784	-7.091001363121828	1.881737810346796	-0.1327679181737079	-4.039004735128183	-1.288990923350964	-6.388445641064137e-07	-1.607818539042287e-06	-5.792739412205392e-06	-6.786488995335753e-06	1.785493243334659e-06	6.170756204243219e-07	-1.197717576757807e-05
1.51	-0.2410217072329104	-0.03717199596007728	0.6104478844541564	1.56759983052329	-0.2328673449347536	-0.05533938646719534	-0.4048235794544524	1.532641999867486	1.532641999867472	-0.1186254609816374	0.1729268015973177	0.4127023222064264	0.1002062149777499	0.3261728786392656	0.0872002827852533	1.147154739641726	-3.187372752555295	0.07563778396945806	-0.3096826848362622	0.3965063841481606	-3.182512015165192	-3.18251201516514	0.4344595631556363	0.01336971234847412	-0.4125484525994995	-0.0238720452748549	-0.2666529542199718	-0.02009790566947121	0.005151173898709257	-0.5597770117542999	0.1137504919641408	0.007017557681206863	0.3025052491358998	-0.04494538632816667	-11.88219714084498	0.483518320942445	0.9354010394615379	-2.899805502441194	-790.6023697777188	76.84121733837091	2.704600070005089	1.519160941377913	1.314295577367456	-5.999828245940409	0.09815770972176205	-0.2707930302059315	3.249466047888321	-6.931530256751346	-6.931530256795195	1.672859007474154	-0.05265920195291667	-4.114191260018888	-1.407621903635181	-6.918038530228733e-07	-1.732770671937128e-06	-6.44988571408244e-06	-7.512219136007187e-06	1.886945824313239e-06	6.376304600152126e-07	-1.283035794832273e-05
1.52	-0.2376258873212869	-0.03622340780004108	0.621981848113758	1.535430108288469	-0.2321063380257827	-0.05844673078866752	-0.4006940097199958	1.50047269226414	1.500472692264135	-0.114194189754848	0.1730561324406868	0.4083703644646215	0.09989659171708551	0.3528736657460366	0.1025778511938762	1.159298003304727	-3.246121611830858	0.07650400226876405	-0.3118560132773809	0.4296218971407216	-3.251098358333368	-3.251098358333608	0.4517722911891388	0.01249445542111826	-0.4539440808387729	-0.03816105926394674	-0.2587886583941136	-0.02034048081437586	0.006670636094423203	-0.5474816784122511	0.1142108879491721	0.007229456695923599	0.2951064580035502	-0.04534379982177309	-10.94094559014784	0.8931807506840926	0.6955289878241291	-3.947488553381392	-778.1663718626385	76.51231266498863	2.636737003326073	1.556022363727267	1.116125348382372	-5.75954284180399	0.08365785277139193	-0.08872240481838538	3.371421483099115	-6.788474222184206	-6.788474222184306	1.854827878151345	-0.1523605230753918	-4.160045708420864	-1.434966496235992	-7.214821401967451e-07	-1.822526991685208e-06	-7.041902869517179e-06	-8.094718214037865e-06	1.966240219147287e-06	6.46381356332748e-07	-1.337277202497831e-05
1.53	-0.233966735163374	-0.03511917967500301	0.6336268800679407	1.502685994896116	-0.2313387578123479	-0.0615789155387354	-0.3962272662911185	1.467625345219128	1.467625345219121	-0.1095911889411449	0.1731768330606034	0.4036222813257639	0.09944084219860085	0.3787994895000213	0.1183240683558189	1.169343173276354	-3.302238790437052	0.07694670039417249	-0.3146736205556382	0.4639333944226172	-3.318076750962166	-3.318076750962528	0.4687905302331946	0.01164876053153873	-0.4956957803029423	-0.0530585174384897	-0.2496995714189923	-0.02085918820013621	0.007882559166435356	-0.5342363295419282	0.1153852517826887	0.007313257300752806	0.2865628605889132	-0.04574245257395985	-9.674835250522557	1.290689977403863	0.472887728340594	-5.333950623584733	-764.1436589015292	75.95040136345038	2.546662253470549	1.592775941883242	0.8940587956338759	-5.468723695059125	0.01349856752083715	-0.3925673668021079	3.492004718925864	-6.608231013329444	-6.608231013347606	1.619542075299469	-0.0525539493017244	-4.186167674843374	-1.529834383630241	-7.264243630191177e-07	-1.874887759964856e-06	-7.564720306856965e-06	-8.525034288012741e-06	2.02199154120277e-06	6.425905629223432e-07	-1.358499499103922e-05
1.54	-0.2300530933295351	-0.03385571846845537	0.6453614329166542	1.469394526052666	-0.2305689660626383	-0.06474213385709909	-0.3914112097157916	1.434117072401807	1.434117072401824	-0.1048191617054415	0.173288700736118	0.398455994070377	0.09883357831725738	0.4037716009355052	0.1344244674957883	1.1772021822112	-3.355592702044534	0.07694630952339891	-0.3180627269328051	0.4994845264322101	-3.383283512795039	-3.383283512795523	0.4855775755879219	0.01072786654585866	-0.537584904144245	-0.06846393183570243	-0.2406104844439554	-0.02137789558592856	0.009094482238500016	-0.5209909806716069	0.1165596156162092	0.007397057905531042	0.2780192631741938	-0.04614911670961779	-8.428139973947413	1.685395040331716	0.2500280738527279	-6.66289346236491	-750.3979675605118	75.40163344524133	2.445994539625677	1.626858759332775	0.6788931410260799	-5.206889442061964	-0.00495994646506955	-0.2030222246003322	3.61934842863848	-6.434148062999312	-6.434148062999316	1.80858914028569	-0.1674003422954303	-4.187530583847245	-1.536557740769912	-7.143581458753955e-07	-1.893975769130157e-06	-8.001797323910985e-06	-8.809438788415143e-06	2.05115245072152e-06	6.361032719343886e-07	-1.355912467648735e-05
1.55	-0.2258944893261318	-0.03242955380510721	0.6571634722793873	1.435583003100448	-0.2298014621725749	-0.06794275797207755	-0.3862341039562635	1.399965917078175	1.399965917078168	-0.09988076239729167	0.1733916656650566	0.3928708854512243	0.09807011406353337	0.4277587046804075	0.1508561033230685	1.182815614115281	-3.406226726685514	0.07648337531897675	-0.322199361094238	0.5361154949631552	-3.446600223840709	-3.446600223841025	0.5020351789960995	0.009886360881181458	-0.5793900191093047	-0.08426270598149478	-0.2303683078157997	-0.02237515558798679	0.00998449684605582	-0.5069036885793591	0.1182861439911085	0.007496000068796042	0.2683426567967516	-0.04655892420812345	-6.905610637532605	2.143368143163991	0.00747687484138582	-8.244703393877129	-735.1163386619127	74.80234998068677	2.346247305841962	1.658871488726304	0.4441810180745289	-4.919140558389552	-0.07898992368392643	-0.5399226599407294	3.711801488745468	-6.228200390995628	-6.228200390970637	1.553893896850468	-0.04170509569583739	-4.169896345344108	-1.608990215686978	-6.826952479011741e-07	-1.874727773228931e-06	-8.34008646541837e-06	-8.925727780136227e-06	2.049676580578384e-06	6.265091467809959e-07	-1.32589294951425e-05
1.56	-0.2215017784825163	-0.03083756168462711	0.6690099685217546	1.40127964358514	-0.2290409935778041	-0.07118893615829255	-0.3806853224267484	1.365192041090957	1.365192041090952	-0.09477987746390101	0.1734863796538945	0.3868691468039176	0.09714717147551077	0.4505929689821538	0.1675899589221733	1.186093558138356	-3.45396001465744	0.07553925046443712	-0.3271735411767108	0.5738196804310731	-3.507827645512176	-3.507827645512326	0.5180747006349451	0.009077678530823995	-0.6209109097747126	-0.1003595986954083	-0.2201261311877263	-0.02337241559007823	0.0108745114536718	-0.492816396487112	0.1200126723660106	0.007594942232007898	0.2586660504192296	-0.04676294108187794	-5.397017724421714	2.597894610690653	-0.2333593179128283	-9.771498118510326	-720.0120434014644	74.21236022787625	2.215426650994214	1.687302713697896	0.211795564824924	-4.626742108251117	-0.1011980764886246	-0.3705314088083391	3.833991816032908	-6.016290188158898	-6.016290188158899	1.72497278641934	-0.1608356794314252	-4.130685723916599	-1.596181454394102	-6.279463775863682e-07	-1.817788676265932e-06	-8.660274620484032e-06	-8.866017644950719e-06	2.024906333923223e-06	6.266602049230254e-07	-1.279021440308465e-05
1.57	-0.2168864569968535	-0.0290768159227347	0.680877418015171	1.366513212448963	-0.2282923198872193	-0.0744884054072726	-0.374754864896894	1.329816811695401	1.329816811695281	-0.08951981377362651	0.1735733706263188	0.3804543562231537	0.09606231011343153	0.4722428724805922	0.184595683416956	1.186981490903861	-3.498795882385943	0.07413989058202633	-0.3328154649819564	0.6124236723405491	-3.566796434021306	-3.566796434021409	0.5338940916102267	0.008293147289920406	-0.6619259798540528	-0.1165803555070699	-0.208861524338979	-0.02461639522803819	0.01146532181361969	-0.4781257707921172	0.1223516751226656	0.007574585394286221	0.2479510246335384	-0.04679964167244802	-3.613971577776391	3.033082019728772	-0.4533295670266146	-11.52666266329209	-703.541223596806	73.43282728006389	2.105283146205405	1.713068810460368	-0.03480609489410108	-4.332688188006748	-0.1690184670200225	-0.6754941167600792	3.896379898439147	-5.773804005263908	-5.773804005256955	1.503174444635274	-0.0435637567923406	-4.068597658910295	-1.632591346276402	-5.443400418458324e-07	-1.713735702975717e-06	-8.957836542497543e-06	-8.586308601131979e-06	1.971018116628032e-06	6.389927421843323e-07	-1.211084942263554e-05
1.58	-0.2120615342868392	-0.02714484061727715	0.6927413271907794	1.331314286818904	-0.2275595825000372	-0.07784718814439194	-0.368433812043945	1.293864568250159	1.293864568249943	-0.0841030057352819	0.1736512559042397	0.3736330789398013	0.09481572747289076	0.4925132138565684	0.2018358676352018	1.185385494577045	-3.540458913428722	0.07235198978351283	-0.3390362388022983	0.6519387450514503	-3.623230455449392	-3.623230455449449	0.549423570247616	0.007256539634114797	-0.702208250292093	-0.132703854387698	-0.1975969174903119	-0.02586037486602228	0.01205613217354499	-0.4634351450971299	0.1246906778793246	0.00755422855653106	0.2372359988477712	-0.05897494459993401	-1.836753247302636	3.466969636232491	-0.6727574855771346	-13.24175097761346	-687.1152897537783	72.66628536770176	1.939514226501494	1.734194658390767	-0.2849902536393443	-3.992174771106064	-0.1789062597092088	-0.4863014118276324	4.016207976317848	-5.509336771950353	-5.509336771950356	1.666990318840944	-0.2112509624117807	-3.984125795656296	-1.576729868187357	-4.943769167713806e-07	-1.770365498310233e-06	-1.065392245091606e-05	-9.322893910305733e-06	2.113558020355456e-06	7.610836682600048e-07	-1.288414339671066e-05
